# xmcd
#
# Track frame offsets: 
#        150
#        13201
#        28555
#        40878
#        55095
#        70606
#        87379
#        110899
#        149985
#        168538
#        185553
#        197104
#        207375
#        218390
#        231480
#        248027
#        263834
#        288937
#
# Disc length: 4047 seconds
#
# Revision: 4
# Processed by: cddbd v1.5.2PL0 Copyright (c) Steve Scherf et al.
# Submitted via: ExactAudioCopy v1.0b6
#
DISCID=160fcd12
DTITLE=Old Merry Tale Jazzband - 50 Jahre OMTJ 1956-2006 - Vol. 2
DYEAR=2006
DGENRE=Jazz
TTITLE0=There'll Be A Hot Time In The Old Town Tonight (1974)
TTITLE1=Moten Shake (1973)
TTITLE2=Misty Morning (1973)
TTITLE3=The Entertainer (1974)
TTITLE4=Mahagony Hall Stomp (1973)
TTITLE5=Bye Bye Love (1973)
TTITLE6=Struttin' With Some Barbecue (1976)
TTITLE7=Creole Love Call (1976)
TTITLE8=Hallelujah I'm Walking With The King (1976)
TTITLE9=Swing Down To New Orleans (1976)
TTITLE10=Over In The Gloryland (1980)
TTITLE11=Oh, Susannah (1980)
TTITLE12=Joshua Fit The Battle Of Jericho (1980)
TTITLE13=Am Sonntag will mein Suesser mit mir Segeln geh'n (1980)
TTITLE14=Lilli Marlene (1981)
TTITLE15=Just A Closer Walk With Thee (1984)
TTITLE16=Back O'Town Blues (1984)
TTITLE17=Panama Rag (1984)
EXTD=
EXTT0=
EXTT1=
EXTT2=
EXTT3=
EXTT4=
EXTT5=
EXTT6=
EXTT7=
EXTT8=
EXTT9=
EXTT10=
EXTT11=
EXTT12=
EXTT13=
EXTT14=
EXTT15=
EXTT16=
EXTT17=
PLAYORDER=
